<?xml version="1.0" standalone="no"?>
<!DOCTYPE svg PUBLIC "-//W3C//DTD SVG 20010904//EN"
 "http://www.w3.org/TR/2001/REC-SVG-20010904/DTD/svg10.dtd">
<svg version="1.0" xmlns="http://www.w3.org/2000/svg"
 width="700.000000pt" height="700.000000pt" viewBox="0 0 700.000000 700.000000"
 preserveAspectRatio="xMidYMid meet">
<metadata>
Created by potrace 1.14, written by Peter Selinger 2001-2017
</metadata>
<g transform="translate(0.000000,700.000000) scale(0.100000,-0.100000)"
fill="#000000" stroke="none">
<path d="M1921 3516 c-866 -1733 -1576 -3157 -1579 -3163 -3 -10 45 -13 215
-13 l219 0 502 1005 c277 553 505 1005 507 1005 3 0 231 -452 507 -1005 l502
-1005 243 0 c134 0 243 3 243 6 0 3 -39 79 -86 167 -48 89 -141 263 -206 387
-66 124 -135 252 -153 285 -18 33 -56 105 -85 160 -29 55 -68 129 -87 165 -20
36 -54 101 -78 145 -23 44 -96 179 -160 300 -65 121 -136 254 -158 295 -22 41
-56 107 -77 145 -21 39 -74 138 -118 222 l-81 152 225 453 c124 249 229 460
234 468 4 8 36 70 70 138 55 110 63 122 78 110 30 -23 36 -28 117 -89 102 -77
113 -86 214 -164 46 -36 88 -65 93 -65 5 0 113 79 239 175 126 96 234 175 239
175 10 0 66 -42 349 -258 143 -110 115 -110 261 2 251 194 295 226 304 226 6
0 416 -810 910 -1800 l900 -1800 218 0 c120 0 218 3 218 6 0 8 -3151 6308
-3158 6315 -4 3 -715 -1412 -1581 -3145z m1960 1510 l377 -753 -52 -39 c-28
-21 -53 -41 -56 -44 -3 -3 -42 -33 -88 -68 l-83 -64 -37 28 c-199 149 -419
320 -429 332 -12 14 -14 14 -25 1 -7 -9 -33 -31 -58 -50 -25 -18 -47 -36 -50
-39 -3 -3 -30 -23 -60 -45 -30 -22 -57 -42 -60 -45 -3 -4 -58 -46 -122 -94
l-117 -87 -139 107 -140 107 377 753 c207 415 378 754 381 754 3 0 174 -339
381 -754z"/>
</g>
</svg>
