<?xml version="1.0" standalone="no"?>
<!DOCTYPE svg PUBLIC "-//W3C//DTD SVG 20010904//EN"
 "http://www.w3.org/TR/2001/REC-SVG-20010904/DTD/svg10.dtd">
<svg version="1.0" xmlns="http://www.w3.org/2000/svg"
 width="700.000000pt" height="700.000000pt" viewBox="0 0 700.000000 700.000000"
 preserveAspectRatio="xMidYMid meet">
<metadata>
Created by potrace 1.14, written by Peter Selinger 2001-2017
</metadata>
<g transform="translate(0.000000,700.000000) scale(0.100000,-0.100000)"
fill="#000000" stroke="none">
<path d="M1925 3503 c-863 -1726 -1571 -3141 -1573 -3146 -2 -4 92 -6 208 -5
l213 3 92 185 c86 170 650 1298 839 1677 l81 163 506 -1013 506 -1012 237 -3
237 -2 -29 52 c-16 29 -52 96 -79 148 -28 52 -67 127 -88 165 -20 39 -58 108
-82 155 -25 47 -58 108 -73 135 -15 28 -53 100 -85 160 -32 61 -70 133 -85
160 -35 64 -172 321 -240 450 -29 55 -60 114 -70 130 -10 17 -48 89 -85 160
-37 72 -75 144 -85 160 -9 17 -45 84 -80 150 -34 66 -66 125 -70 130 -4 6 -37
67 -73 137 l-67 127 139 278 c76 153 189 379 250 503 62 124 116 232 121 240
5 8 26 50 46 93 20 42 39 77 42 77 6 0 234 -169 242 -180 8 -10 199 -150 204
-150 3 0 111 81 241 180 l235 180 230 -175 c126 -96 235 -178 243 -181 8 -3
21 1 28 8 8 8 59 48 114 89 55 42 146 111 203 154 56 43 104 76 106 74 2 -2
409 -815 905 -1806 l901 -1803 210 0 209 0 -38 77 c-47 98 -2168 4338 -2181
4361 -5 9 -59 118 -121 242 -62 124 -116 232 -120 240 -5 8 -160 320 -346 692
-186 373 -340 678 -343 678 -3 0 -712 -1412 -1575 -3137z m1962 1532 l383
-764 -33 -26 c-138 -108 -253 -195 -258 -195 -4 0 -49 32 -100 72 -52 39 -158
120 -236 180 l-142 108 -133 -100 c-73 -56 -140 -106 -148 -113 -84 -68 -193
-147 -200 -145 -5 2 -72 52 -149 111 l-142 108 35 67 c36 70 469 936 635 1270
53 105 98 192 101 192 3 0 177 -344 387 -765z"/>
</g>
</svg>
