<?xml version="1.0" encoding="utf-8" standalone="no"?>
<!DOCTYPE svg PUBLIC "-//W3C//DTD SVG 1.1//EN"
  "http://www.w3.org/Graphics/SVG/1.1/DTD/svg11.dtd">
<svg xmlns:xlink="http://www.w3.org/1999/xlink" width="360pt" height="360pt" viewBox="0 0 360 360" xmlns="http://www.w3.org/2000/svg" version="1.1">
 <metadata>
  <rdf:RDF xmlns:dc="http://purl.org/dc/elements/1.1/" xmlns:cc="http://creativecommons.org/ns#" xmlns:rdf="http://www.w3.org/1999/02/22-rdf-syntax-ns#">
   <cc:Work>
    <dc:type rdf:resource="http://purl.org/dc/dcmitype/StillImage"/>
    <dc:date>2023-03-13T16:38:19.192636</dc:date>
    <dc:format>image/svg+xml</dc:format>
    <dc:creator>
     <cc:Agent>
      <dc:title>Matplotlib v3.6.3, https://matplotlib.org/</dc:title>
     </cc:Agent>
    </dc:creator>
   </cc:Work>
  </rdf:RDF>
 </metadata>
 <defs>
  <style type="text/css">*{stroke-linejoin: round; stroke-linecap: butt}</style>
 </defs>
 <g id="figure_1">
  <g id="patch_1">
   <path d="M 0 360 
L 360 360 
L 360 0 
L 0 0 
L 0 360 
z
" style="fill: none"/>
  </g>
  <g id="axes_1">
   <g id="patch_2">
    <path d="M 18 342 
L 180 18 
L 342 342 
L 320.4 342 
L 180 61.2 
L 39.6 342 
z
" clip-path="url(#pc2431cd3fb)" style="fill: #ffffff"/>
   </g>
   <g id="patch_3">
    <path d="M 81 216 
L 90.659814 196.680373 
L 168.149534 342 
L 144 342 
z
" clip-path="url(#pc2431cd3fb)" style="fill: #ffffff"/>
   </g>
   <g id="patch_4">
    <path d="M 180 154.8 
L 155.459814 173.52 
L 130.919627 154.8 
L 130.919627 133.2 
L 155.459814 151.92 
L 180 133.2 
z
" clip-path="url(#pc2431cd3fb)" style="fill: #ffffff"/>
   </g>
   <g id="patch_5">
    <path d="M 180 154.8 
L 204.540186 173.52 
L 229.080373 154.8 
L 229.080373 133.2 
L 204.540186 151.92 
L 180 133.2 
z
" clip-path="url(#pc2431cd3fb)" style="fill: #ffffff"/>
   </g>
  </g>
 </g>
 <defs>
  <clipPath id="pc2431cd3fb">
   <rect x="0" y="0" width="360" height="360"/>
  </clipPath>
 </defs>
</svg>
