<?xml version="1.0" standalone="no"?>
<!DOCTYPE svg PUBLIC "-//W3C//DTD SVG 1.0//EN" "http://www.w3.org/TR/2001/REC-SVG-20010904/DTD/svg10.dtd">
<svg xmlns="http://www.w3.org/2000/svg" xmlns:xlink="http://www.w3.org/1999/xlink" id="body_1" width="26" height="23">

<defs>
            <clipPath  id="1">

                <path clip-rule="evenodd" d="M80 244L2518 244L2518 2354L80 2354L80 244z" />            </clipPath>
</defs>

<g transform="matrix(0.26530612 0 0 0.27380952 0 0)">
	<g transform="matrix(0.04019689 0 0 0.039810427 0 0)">
		<g transform="matrix(1 0 0 1 -80 -244)" clip-path="url(#1)" >
            <path d="M80.0001 2352.28L215.826 2352.28L621.587 1647.8L1032.51 2354L1164.89 2352.28L690.36 1527.53L1299 475.962L2383.89 2352.28L2518 2350.56L1299 244L80.0001 2352.28z" stroke="none" fill="#FFFFFF" fill-rule="nonzero" />
            <path d="M961.877 1045.1L1104.54 1191.1L1300.48 997L1496.43 1191.1L1649.4 1043.38L1713 1148.16L1690.66 1160.18L1494.71 1356L1300.48 1163.62L1104.54 1354.28L900 1151.59L961.877 1045.1z" stroke="none" fill="#FFFFFF" fill-rule="nonzero" />
		</g>
	</g>
</g>
</svg>